<svg version="1.1" xmlns="http://www.w3.org/2000/svg" xmlns:xlink="http://www.w3.org/1999/xlink" width="51.15402" height="105.38676" viewBox="0,0,51.15402,105.38676"><g transform="translate(-214.55348,-109.64913)"><g data-paper-data="{&quot;isPaintingLayer&quot;:true}" fill-rule="nonzero" stroke="#000000" stroke-width="1" stroke-linecap="butt" stroke-linejoin="miter" stroke-miterlimit="10" stroke-dasharray="" stroke-dashoffset="0" style="mix-blend-mode: normal"><path d="M261.77741,180c0,19.07364 -9.75008,34.53589 -21.77741,34.53589c-12.02733,0 -21.77741,-15.46224 -21.77741,-34.53589c0,-19.07364 9.75008,-34.53589 21.77741,-34.53589c12.02733,0 21.77741,15.46224 21.77741,34.53589z" fill="#ffcb66"/><path d="M265.2075,135.88607c0,14.21412 -11.22736,25.73694 -25.07701,25.73694c-13.84965,0 -25.07701,-11.52282 -25.07701,-25.73694c0,-14.21412 11.22736,-25.73694 25.07701,-25.73694c13.84965,0 25.07701,11.52282 25.07701,25.73694z" fill="#ffcb66"/><path d="M230.89158,134.34626c0,4.85953 -1.28031,8.79895 -2.85966,8.79895c-1.57935,0 -2.85966,-3.93943 -2.85966,-8.79895c0,-4.85953 1.28031,-8.79895 2.85966,-8.79895c1.57935,0 2.85966,3.93943 2.85966,8.79895z" fill="#000000"/><path d="M253.76886,134.12628c0,4.73804 -1.08334,8.57898 -2.41971,8.57898c-1.33637,0 -2.41971,-3.84094 -2.41971,-8.57898c0,-4.73804 1.08334,-8.57898 2.41971,-8.57898c1.33637,0 2.41971,3.84094 2.41971,8.57898z" fill="#000000"/></g></g></svg>