<svg version="1.1" xmlns="http://www.w3.org/2000/svg" xmlns:xlink="http://www.w3.org/1999/xlink" width="55" height="119" viewBox="0,0,55,119"><g transform="translate(-212.5,-106.5)"><g data-paper-data="{&quot;isPaintingLayer&quot;:true}" fill-rule="nonzero" stroke="#000000" stroke-width="1" stroke-linecap="butt" stroke-linejoin="miter" stroke-miterlimit="10" stroke-dasharray="" stroke-dashoffset="0" style="mix-blend-mode: normal"><path d="M267,180c0,24.85281 -12.08831,45 -27,45c-14.91169,0 -27,-20.14719 -27,-45c0,-24.85281 12.08831,-45 27,-45c14.91169,0 27,20.14719 27,45z" fill="#f66f6f"/><path d="M266.20732,134c0,14.91169 -11.35122,27 -25.35366,27c-14.00244,0 -25.35366,-12.08831 -25.35366,-27c0,-14.91169 11.35122,-27 25.35366,-27c14.00244,0 25.35366,12.08831 25.35366,27z" fill="#f66f6f"/><path d="M234.5,135c0,6.07513 -1.79086,11 -4,11c-2.20914,0 -4,-4.92487 -4,-11c0,-6.07513 1.79086,-11 4,-11c2.20914,0 4,4.92487 4,11z" fill="#0e7d01"/><path d="M255.5,136c0,6.62742 -1.79086,12 -4,12c-2.20914,0 -4,-5.37258 -4,-12c0,-6.62742 1.79086,-12 4,-12c2.20914,0 4,5.37258 4,12z" fill="#0e7d01"/></g></g></svg>